# xmcd CD database file
#
# Track frame offsets:
#	183
#	12175
#	24293
#	37970
#	50273
#	63850
#	76823
#	89228
#	102680
#	115708
#	127820
#	140750
#	153500
#	167413
#	179373
#	193030
#	205703
#	218590
#	232435
#	243890
#	256533
#	267455
#	282833
#	296223
#	309013
#	320475
#	330825
#	340873
#
# Disc length: 4685 seconds
#
# Revision: 0
# Processed by: cddbd v1.4PL0 Copyright (c) Steve Scherf et al.
# Submitted via: CDex 1.50Beta7
#
DISCID=83124b1c
DTITLE=Merle Travis - Country Music Classics
DYEAR=1900
DGENRE=Country
TTITLE0=Cincinnati Lou
TTITLE1=No Vacancy
TTITLE2=Divorce Me C.O.D.
TTITLE3=Missouri
TTITLE4=So Round, So Firm, So Fully Packed
TTITLE5=Sweet Temptation
TTITLE6=Steel Guitar Rag
TTITLE7=Three Times Seven
TTITLE8=Sixteen Tons
TTITLE9=Nine Pound Hammer
TTITLE10=I Am A Pilgrim
TTITLE11=Dark As Dungeon
TTITLE12=John Henry
TTITLE13=Fat Girl
TTITLE14=Merle's Boogie Woogie
TTITLE15=Crazy Boogie
TTITLE16=I'm Natural Born Gamblin' Man
TTITLE17=I'm SickAnd Tired Of You Little Darlin'
TTITLE18=Sioux City Sue
TTITLE19=What A Shame
TTITLE20=Kinfolks In Carolina
TTITLE21=Re-Enlistment Blues
TTITLE22=Wildwood Flower
TTITLE23=Blues Stay Away From Me
TTITLE24=Kentucky Means Paradise
TTITLE25=John Henry Jnr
TTITLE26=Guitar Rag
TTITLE27=Way Down Yonder In New Orleans
EXTD=
EXTT0=
EXTT1=
EXTT2=
EXTT3=
EXTT4=
EXTT5=
EXTT6=
EXTT7=
EXTT8=
EXTT9=
EXTT10=
EXTT11=
EXTT12=
EXTT13=
EXTT14=
EXTT15=
EXTT16=
EXTT17=
EXTT18=
EXTT19=
EXTT20=
EXTT21=
EXTT22=
EXTT23=
EXTT24=
EXTT25=
EXTT26=
EXTT27=
PLAYORDER=
